<?xml version="1.0" encoding="UTF-8" standalone="no"?>
<svg
   xmlns:dc="http://purl.org/dc/elements/1.1/"
   xmlns:cc="http://creativecommons.org/ns#"
   xmlns:rdf="http://www.w3.org/1999/02/22-rdf-syntax-ns#"
   xmlns:svg="http://www.w3.org/2000/svg"
   xmlns="http://www.w3.org/2000/svg"
   xmlns:sodipodi="http://sodipodi.sourceforge.net/DTD/sodipodi-0.dtd"
   xmlns:inkscape="http://www.inkscape.org/namespaces/inkscape"
   id="svg209"
   version="1.2"
   viewBox="0 0 622.28515 145.24609"
   inkscape:version="0.92.4 5da689c313, 2019-01-14">
  <metadata
     id="metadata215">
    <rdf:RDF>
      <cc:Work
         rdf:about="">
        <dc:format>image/svg+xml</dc:format>
        <dc:type
           rdf:resource="http://purl.org/dc/dcmitype/StillImage" />
        <dc:title></dc:title>
      </cc:Work>
    </rdf:RDF>
  </metadata>
  <defs
     id="defs213" />
  <g
     id="surface451"
     transform="translate(-109.80078,-147.28125)">
    <path
       id="path2"
       d="m 182.19922,183.50391 c -4.32422,-4.04297 -9.71485,-6.09375 -16.01953,-6.09375 -3.06641,0 -6.26953,0.83984 -9.52344,2.49218 -3.125,1.58594 -5.59766,3.61328 -7.35156,6.03516 -1.6836,-2.42188 -4.08203,-4.44922 -7.13282,-6.03516 -3.17578,-1.65234 -6.38281,-2.49218 -9.52343,-2.49218 -6.30469,0 -11.70703,2.0625 -16.04688,6.125 -4.34375,4.0625 -6.55078,9.15234 -6.55078,15.11718 v 40.91016 c 0,0.13672 0.11328,0.24609 0.2461,0.24609 h 11.12109 c 0.13672,0 0.24609,-0.10937 0.24609,-0.24609 v -40.91016 c 0,-3.01172 1.07813,-5.60937 3.20703,-7.71875 2.12891,-2.11328 4.7461,-3.18359 7.77735,-3.18359 3.03515,0 5.64453,1.07031 7.7539,3.18359 2.10938,2.10938 3.17578,4.70703 3.17578,7.71875 v 40.91016 c 0,0.13672 0.11329,0.24609 0.25,0.24609 h 11.11719 c 0.13672,0 0.2461,-0.10937 0.2461,-0.24609 v -40.91016 c 0,-3.04687 1.07812,-5.65625 3.20703,-7.74609 2.125,-2.09375 4.74609,-3.15625 7.78125,-3.15625 2.99609,0 5.59375,1.07031 7.72265,3.18359 2.12891,2.10938 3.20703,4.70703 3.20703,7.71875 v 40.91016 c 0,0.13672 0.10938,0.24609 0.2461,0.24609 h 11.11719 c 0.13671,0 0.24609,-0.10937 0.24609,-0.24609 v -40.91016 c 0,-6.0039 -2.19141,-11.10156 -6.51953,-15.14843"
       style="fill:#000000;fill-opacity:1;fill-rule:nonzero;stroke:none"
       inkscape:connector-curvature="0" />
    <path
       id="path4"
       d="m 316.34766,178.59766 h -11.1211 c -0.13672,0 -0.24609,0.11328 -0.24609,0.25 v 5.32031 c 0,5.22265 -2.03516,9.77734 -6.05078,13.53906 -4.01953,3.76563 -8.90235,5.67578 -14.51563,5.67578 h -5.33984 v -55.85156 c 0,-0.13672 -0.10938,-0.25 -0.2461,-0.25 h -11.12109 c -0.13672,0 -0.24609,0.11328 -0.24609,0.25 v 92.03125 c 0,0.13281 0.10937,0.24609 0.24609,0.24609 h 11.12109 c 0.13672,0 0.2461,-0.11328 0.2461,-0.24609 v -25.83984 h 5.33984 c 5.6836,0 10.58594,1.9375 14.56641,5.75781 3.98047,3.82031 6,8.53906 6,14.02734 v 6.05469 c 0,0.13281 0.10937,0.24609 0.24609,0.24609 h 11.1211 c 0.13671,0 0.24609,-0.11328 0.24609,-0.24609 v -6.05469 c 0,-5.91015 -1.51953,-11.20703 -4.51953,-15.7539 -2.85156,-4.32813 -6.60938,-7.39063 -11.17969,-9.11719 4.14063,-1.3086 7.78516,-4.26563 10.83984,-8.80078 3.22266,-4.79297 4.85938,-10.06641 4.85938,-15.66797 v -5.32031 c 0,-0.13672 -0.10938,-0.25 -0.24609,-0.25"
       style="fill:#000000;fill-opacity:1;fill-rule:nonzero;stroke:none"
       inkscape:connector-curvature="0" />
    <path
       id="path6"
       d="m 332.75391,202.59375 c 1.4414,-4.3125 4.04296,-7.88281 7.73046,-10.62109 3.78125,-2.80079 8.10547,-4.22266 12.85547,-4.22266 4.78907,0 9.14453,1.42969 12.94141,4.25391 3.70312,2.7539 6.27344,6.3125 7.64844,10.58984 z m 33.36328,-22.84766 c -4.01953,-1.55078 -8.32032,-2.33593 -12.77735,-2.33593 -4.45703,0 -8.7539,0.78515 -12.77343,2.33593 -4.02344,1.55469 -7.62891,3.81641 -10.71485,6.73047 -6.44922,6.09375 -9.71484,13.75 -9.71484,22.75391 0,8.97265 3.26562,16.60937 9.71484,22.70312 3.08594,2.8711 6.69141,5.11719 10.71485,6.67188 4.01953,1.55078 8.3164,2.33203 12.77343,2.33203 14.3125,0 24.76172,-4.67969 31.05469,-13.91406 0.0352,-0.0547 0.0508,-0.125 0.0352,-0.19141 -0.0156,-0.0703 -0.0586,-0.125 -0.1211,-0.16016 L 374.5,221.12891 c -0.11328,-0.0625 -0.25391,-0.0312 -0.32422,0.0781 -1.98047,2.96484 -4.75781,5.29297 -8.25391,6.92578 -3.5039,1.63672 -7.46875,2.46875 -11.78515,2.46875 -5.69141,0 -10.65235,-1.72265 -14.75,-5.12109 -4.01953,-3.33203 -6.4961,-7.55078 -7.36328,-12.55078 h 54.27343 c 0.13672,0 0.2461,-0.10938 0.2461,-0.2461 v -3.45312 c 0,-9.00391 -3.26563,-16.66016 -9.71485,-22.75391 -3.08203,-2.91015 -6.6875,-5.17578 -10.71093,-6.73047"
       style="fill:#000000;fill-opacity:1;fill-rule:nonzero;stroke:none"
       inkscape:connector-curvature="0" />
    <path
       id="path8"
       d="m 420.61328,178.59766 h -1.76953 c -7.78125,0 -14.29297,2.35546 -19.35156,7 -5.06641,4.64453 -7.63672,10.67578 -7.63672,17.91796 v 36.04688 c 0,0.13281 0.10937,0.24609 0.24609,0.24609 h 11.1211 c 0.13671,0 0.24609,-0.11328 0.24609,-0.24609 v -36.04688 c 0,-3.75781 1.58594,-7.16015 4.71094,-10.11718 3.13281,-2.96094 6.71875,-4.46094 10.66406,-4.46094 h 1.76953 c 0.13672,0 0.24609,-0.10938 0.24609,-0.24609 v -9.84375 c 0,-0.13672 -0.10937,-0.25 -0.24609,-0.25"
       style="fill:#000000;fill-opacity:1;fill-rule:nonzero;stroke:none"
       inkscape:connector-curvature="0" />
    <path
       id="path10"
       d="m 461.08203,208.49609 -19.26953,-8.08984 c -1.78125,-0.77344 -3.05078,-1.67188 -3.77734,-2.66797 -0.72657,-0.98437 -1.09375,-2.35156 -1.09375,-4.06641 0,-1.33593 0.49609,-2.43359 1.51562,-3.35546 1.01172,-0.91407 2.26172,-1.37891 3.71094,-1.37891 h 27.2539 c 0.14063,0 0.25,-0.10938 0.25,-0.24609 v -9.84375 c 0,-0.13672 -0.10937,-0.25 -0.25,-0.25 h -27.9375 c -4.49218,0 -8.34375,1.49218 -11.46093,4.42578 -3.11328,2.9414 -4.69532,6.52343 -4.69532,10.64843 0,7.8086 3.71485,13.3086 11.04297,16.35547 l 19.84375,8.31641 c 3.35157,1.36719 4.98047,3.45703 4.98047,6.39453 0,1.32422 -0.59375,2.41406 -1.8125,3.33594 -1.22656,0.92578 -2.73828,1.39453 -4.5,1.39453 h -29.1914 c -0.13672,0 -0.25,0.11328 -0.25,0.24609 v 9.84766 c 0,0.13281 0.11328,0.24609 0.25,0.24609 H 455.625 c 4.83203,0 8.94141,-1.46875 12.22266,-4.36328 3.29296,-2.90234 4.96093,-6.5039 4.96093,-10.70703 0,-7.50781 -3.94531,-12.97266 -11.72656,-16.24219"
       style="fill:#000000;fill-opacity:1;fill-rule:nonzero;stroke:none"
       inkscape:connector-curvature="0" />
    <path
       id="path12"
       d="m 662.09766,178.59766 h -8.32813 c -8.84375,0 -16.45703,2.9375 -22.63281,8.72656 -6.21875,5.86719 -9.3711,13.21875 -9.3711,21.85156 0,8.63281 3.15235,15.96484 9.3711,21.79297 6.09765,5.67578 13.71094,8.64844 22.63281,8.83984 h 8.32813 c 0.13671,0 0.24609,-0.11328 0.24609,-0.24609 v -9.84766 c 0,-0.13281 -0.10938,-0.24609 -0.24609,-0.24609 h -8.32813 c -5.60937,0 -10.46094,-1.99219 -14.42187,-5.92578 -3.96485,-3.9336 -5.97266,-8.76563 -5.97266,-14.36719 0,-5.5625 2.00781,-10.37891 5.97266,-14.30859 3.96093,-3.9336 8.8125,-5.92969 14.42187,-5.92969 h 8.32813 c 0.13671,0 0.24609,-0.10938 0.24609,-0.24609 v -9.84375 c 0,-0.13672 -0.10938,-0.25 -0.24609,-0.25"
       style="fill:#000000;fill-opacity:1;fill-rule:nonzero;stroke:none"
       inkscape:connector-curvature="0" />
    <path
       id="path14"
       d="m 678.29687,202.59375 c 1.44532,-4.3125 4.04297,-7.88281 7.73047,-10.62109 3.78125,-2.80079 8.10547,-4.22266 12.85547,-4.22266 4.78906,0 9.14063,1.42969 12.94141,4.25391 3.70312,2.7539 6.27734,6.3125 7.64844,10.58984 z M 722.375,186.47656 c -3.08594,-2.91015 -6.69141,-5.17578 -10.71484,-6.73047 -4.02344,-1.55078 -8.32032,-2.33593 -12.77735,-2.33593 -4.45703,0 -8.7539,0.78515 -12.77734,2.33593 -4.02344,1.55469 -7.62891,3.82032 -10.71485,6.73047 -6.44531,6.09375 -9.71093,13.75 -9.71093,22.75391 0,8.97265 3.26562,16.60937 9.71484,22.70312 3.08203,2.8711 6.6875,5.11719 10.71094,6.67188 4.02344,1.55078 8.32031,2.33203 12.77734,2.33203 14.31641,0 24.76172,-4.67969 31.05078,-13.91406 0.0391,-0.0547 0.0547,-0.125 0.0391,-0.19141 -0.0156,-0.0703 -0.0625,-0.125 -0.1211,-0.16016 l -9.80469,-5.54296 c -0.11718,-0.0625 -0.25781,-0.0312 -0.32812,0.0781 -1.98438,2.96484 -4.75781,5.29297 -8.25391,6.92578 -3.5,1.63672 -7.46484,2.46875 -11.78125,2.46875 -5.69531,0 -10.65625,-1.72265 -14.7539,-5.12109 -4.02344,-3.33594 -6.4961,-7.55469 -7.36719,-12.55078 h 54.27734 c 0.13672,0 0.2461,-0.10938 0.2461,-0.2461 v -3.45312 c 0,-9.00391 -3.26563,-16.66016 -9.71094,-22.75391"
       style="fill:#000000;fill-opacity:1;fill-rule:nonzero;stroke:none"
       inkscape:connector-curvature="0" />
    <path
       id="path16"
       d="m 507.26953,262.66016 c -2.41406,0 -4.41797,0.84765 -6.01172,2.54296 -1.59765,1.69532 -2.39844,3.66407 -2.39844,5.90625 0,2.38282 0.79297,4.42969 2.375,6.14063 1.57813,1.71094 3.63672,2.5625 6.17579,2.5625 2.66015,0 4.75,-0.85156 6.26953,-2.5625 1.51562,-1.71094 2.27734,-3.82813 2.27734,-6.35938 0,-2.35156 -0.80078,-4.3125 -2.39453,-5.8789 -1.59766,-1.56641 -3.69531,-2.35156 -6.29297,-2.35156 m 10.66016,-1.37891 v 19.91016 h -2.11328 v -3.57813 h -0.0937 c -0.78516,1.23828 -1.94141,2.21484 -3.47657,2.93359 -1.53125,0.71875 -3.13281,1.07813 -4.78906,1.07813 -3.22656,0 -5.81641,-1.00781 -7.77344,-3.01953 -1.95703,-2.00781 -2.93359,-4.50781 -2.93359,-7.4961 0,-2.96093 0.96875,-5.41015 2.91016,-7.34765 1.9414,-1.94141 4.50781,-2.91016 7.70312,-2.91016 1.6875,0 3.27734,0.33594 4.76563,1.01172 1.48828,0.67578 2.68359,1.63281 3.59375,2.86719 h 0.0937 v -3.44922 z m 0,0"
       style="fill:#000000;fill-opacity:1;fill-rule:nonzero;stroke:none"
       inkscape:connector-curvature="0" />
    <path
       id="path18"
       d="m 532.53516,279.8125 c 2.66015,0 4.75,-0.85156 6.27343,-2.5625 1.51563,-1.71094 2.27344,-3.82813 2.27344,-6.35938 0,-2.35546 -0.79687,-4.3164 -2.39453,-5.8789 -1.59766,-1.56641 -3.69531,-2.35156 -6.29297,-2.35156 -2.41016,0 -4.41406,0.84765 -6.01172,2.54296 -1.59765,1.69532 -2.39453,3.66407 -2.39453,5.90625 0,2.38282 0.78906,4.42969 2.37109,6.14063 1.58204,1.71094 3.64063,2.5625 6.17579,2.5625 m 8.40625,1.37891 v -3.57813 h -0.0937 c -0.78516,1.23828 -1.94141,2.21484 -3.47657,2.93359 -1.53125,0.71875 -3.1289,1.07813 -4.78906,1.07813 -3.22656,0 -5.81641,-1.00781 -7.77344,-3.01953 -1.95703,-2.00781 -2.93359,-4.50781 -2.93359,-7.4961 0,-2.96093 0.96875,-5.41015 2.91016,-7.34765 1.9414,-1.94141 4.50781,-2.91016 7.70312,-2.91016 1.69141,0 3.28125,0.33594 4.76563,1.01172 1.48828,0.67578 2.68359,1.63281 3.59375,2.86719 h 0.0937 v -19.09375 h 2.11718 v 35.55469 z m 0,0"
       style="fill:#000000;fill-opacity:1;fill-rule:nonzero;stroke:none"
       inkscape:connector-curvature="0" />
    <path
       id="path20"
       d="m 549.11328,269.60156 h 16.71875 c -0.28125,-1.89844 -1.1875,-3.52734 -2.72266,-4.89453 -1.53515,-1.36328 -3.38281,-2.04687 -5.54296,-2.04687 -2.19141,0 -4.10157,0.68359 -5.72657,2.04687 -1.6289,1.36719 -2.53906,2.99609 -2.72656,4.89453 m 18.83594,1.8086 h -18.83594 c -0.0625,2.5 0.73047,4.52343 2.37109,6.07421 1.64454,1.55469 3.75,2.32813 6.32032,2.32813 1.625,0 3.10547,-0.41016 4.43359,-1.22656 1.33203,-0.82032 2.40625,-1.91797 3.21875,-3.29688 l 1.78516,0.94531 c -2.06641,3.59375 -5.30469,5.39063 -9.72266,5.39063 -3.12891,0 -5.66406,-1.01563 -7.60547,-3.03906 C 547.96875,276.55859 547,274.09766 547,271.19531 c 0,-2.875 0.97656,-5.3164 2.9375,-7.32812 1.95312,-2.01172 4.48437,-3.01563 7.58203,-3.01563 3.19531,0 5.73828,1.01953 7.63281,3.0586 1.89453,2.03906 2.82422,4.53906 2.79688,7.5"
       style="fill:#000000;fill-opacity:1;fill-rule:nonzero;stroke:none"
       inkscape:connector-curvature="0" />
    <path
       id="path22"
       d="m 574.00391,281.19141 h -2.11329 v -35.55469 h 2.11329 z m 0,0"
       style="fill:#000000;fill-opacity:1;fill-rule:nonzero;stroke:none"
       inkscape:connector-curvature="0" />
    <path
       id="path24"
       d="m 588.46875,262.66016 c -2.41016,0 -4.41406,0.84765 -6.01172,2.54296 -1.59375,1.69532 -2.39453,3.66407 -2.39453,5.90625 0,2.38282 0.79297,4.42969 2.37109,6.14063 1.58203,1.71094 3.64063,2.5625 6.17578,2.5625 2.66407,0 4.75391,-0.85156 6.27344,-2.5625 1.51563,-1.71094 2.27735,-3.82813 2.27735,-6.35938 0,-2.35156 -0.80079,-4.3125 -2.39844,-5.8789 -1.59766,-1.56641 -3.69531,-2.35156 -6.29297,-2.35156 m 10.66406,-1.37891 v 19.91016 h -2.11328 v -3.57813 h -0.0937 c -0.78516,1.23828 -1.94531,2.21484 -3.47656,2.93359 -1.53516,0.71875 -3.13281,1.07813 -4.79297,1.07813 -3.22266,0 -5.81641,-1.00781 -7.76953,-3.01953 -1.96094,-2.00781 -2.9375,-4.50781 -2.9375,-7.4961 0,-2.96093 0.96875,-5.41015 2.91406,-7.34765 1.94141,-1.94141 4.50781,-2.91016 7.69922,-2.91016 1.69141,0 3.28125,0.33594 4.76953,1.01172 1.48828,0.67578 2.68359,1.63281 3.59375,2.86719 h 0.0937 v -3.44922 z m 0,0"
       style="fill:#000000;fill-opacity:1;fill-rule:nonzero;stroke:none"
       inkscape:connector-curvature="0" />
    <path
       id="path26"
       d="m 608.8125,254.64453 c 0,0.96094 -0.78125,1.74219 -1.74609,1.74219 -0.96094,0 -1.74219,-0.78125 -1.74219,-1.74219 0,-0.96094 0.78125,-1.74219 1.74219,-1.74219 0.96484,0 1.74609,0.78125 1.74609,1.74219 m -0.71094,26.54688 h -2.11328 v -19.91016 h 2.11328 z m 0,0"
       style="fill:#000000;fill-opacity:1;fill-rule:nonzero;stroke:none"
       inkscape:connector-curvature="0" />
    <path
       id="path28"
       d="m 623.55078,279.8125 c 2.66406,0 4.75391,-0.85156 6.27344,-2.5625 1.51562,-1.71094 2.27344,-3.82813 2.27344,-6.35938 0,-2.35546 -0.79688,-4.3164 -2.39454,-5.8789 -1.59765,-1.56641 -3.69531,-2.35156 -6.29296,-2.35156 -2.41016,0 -4.41407,0.84765 -6.01172,2.54296 -1.59375,1.69532 -2.39453,3.66407 -2.39453,5.90625 0,2.38282 0.79296,4.42969 2.37109,6.14063 1.58203,1.71094 3.64062,2.5625 6.17578,2.5625 m 8.41016,1.37891 v -3.57813 h -0.0937 c -0.78516,1.23828 -1.94532,2.21484 -3.47657,2.93359 -1.53515,0.71875 -3.13281,1.07813 -4.79296,1.07813 -3.22266,0 -5.81641,-1.00781 -7.76954,-3.01953 -1.96093,-2.00781 -2.9375,-4.50781 -2.9375,-7.4961 0,-2.96093 0.96875,-5.41015 2.91407,-7.34765 1.9414,-1.94141 4.50781,-2.91016 7.69922,-2.91016 1.6914,0 3.28125,0.33594 4.76953,1.01172 1.48828,0.67578 2.68359,1.63281 3.59375,2.86719 h 0.0937 v -19.09375 h 2.11328 v 35.55469 z m 0,0"
       style="fill:#000000;fill-opacity:1;fill-rule:nonzero;stroke:none"
       inkscape:connector-curvature="0" />
    <path
       id="path30"
       d="m 640.12891,269.60156 h 16.72265 c -0.28515,-1.89844 -1.1914,-3.52734 -2.72265,-4.89453 -1.53516,-1.36328 -3.38282,-2.04687 -5.54297,-2.04687 -2.19532,0 -4.10157,0.68359 -5.73047,2.04687 -1.62891,1.36719 -2.53906,2.99609 -2.72656,4.89453 m 18.83593,1.8086 h -18.83593 c -0.0625,2.5 0.73046,4.52343 2.375,6.07421 1.64062,1.55469 3.74609,2.32813 6.3164,2.32813 1.625,0 3.10547,-0.41016 4.4375,-1.22656 1.33203,-0.82032 2.40235,-1.91797 3.21485,-3.29688 l 1.78515,0.94531 c -2.0664,3.59375 -5.30469,5.39063 -9.71875,5.39063 -3.13281,0 -5.66797,-1.01563 -7.60937,-3.03906 -1.94141,-2.02735 -2.91016,-4.48828 -2.91016,-7.39063 0,-2.875 0.97656,-5.3164 2.93359,-7.32812 1.95313,-2.01172 4.48438,-3.01563 7.58594,-3.01563 3.19141,0 5.73438,1.01953 7.63281,3.0586 1.89454,2.03906 2.82032,4.53906 2.79297,7.5"
       style="fill:#000000;fill-opacity:1;fill-rule:nonzero;stroke:none"
       inkscape:connector-curvature="0" />
    <path
       id="path32"
       d="m 685.30859,262.66016 c -2.53515,0 -4.67187,0.84765 -6.40625,2.54296 -1.73828,1.69532 -2.60937,3.72266 -2.60937,6.07813 0,2.29687 0.87109,4.29687 2.60937,5.98828 1.73438,1.69531 3.8711,2.54297 6.40625,2.54297 2.66407,0 4.90235,-0.81641 6.71875,-2.45703 1.81641,-1.63672 2.72266,-3.66016 2.72266,-6.07422 0,-2.44141 -0.89844,-4.48828 -2.69922,-6.14063 -1.80078,-1.65234 -4.04687,-2.48046 -6.74219,-2.48046 m 0.14063,-1.8086 c 3.19531,0 5.89453,0.9961 8.10156,2.9961 2.21094,1.99609 3.3125,4.46093 3.3125,7.39062 0,2.92969 -1.10156,5.39453 -3.3125,7.39063 -2.20703,1.99609 -4.90625,2.99609 -8.10156,2.99609 -3.09766,0 -5.75,-1.01563 -7.95703,-3.03906 -2.21094,-2.02735 -3.3125,-4.46094 -3.3125,-7.30469 0,-2.875 1.09375,-5.32813 3.28906,-7.37109 2.19141,-2.03907 4.85156,-3.0586 7.98047,-3.0586"
       style="fill:#000000;fill-opacity:1;fill-rule:nonzero;stroke:none"
       inkscape:connector-curvature="0" />
    <path
       id="path34"
       d="m 702.92187,261.28125 v 2.58594 h 0.0937 c 0.94141,-2.00782 2.50782,-3.01563 4.69922,-3.01563 0.75,0 1.51563,0.16016 2.30078,0.47266 l -1.1289,1.72265 c -0.53125,-0.25781 -1.03125,-0.38671 -1.5,-0.38671 -0.62891,0 -1.1836,0.10156 -1.66797,0.30078 -0.48828,0.20312 -0.88672,0.4414 -1.19922,0.71093 -0.3125,0.27735 -0.57812,0.66407 -0.79687,1.16407 -0.21875,0.5039 -0.375,0.9414 -0.46875,1.3164 -0.0977,0.375 -0.17579,0.89063 -0.23829,1.55078 -0.0625,0.66016 -0.0937,1.14063 -0.0937,1.44532 v 12.04297 h -2.11328 v -19.91016 z m 0,0"
       style="fill:#000000;fill-opacity:1;fill-rule:nonzero;stroke:none"
       inkscape:connector-curvature="0" />
    <path
       id="path36"
       d="m 721.42578,262.66016 c -2.41016,0 -4.41406,0.84765 -6.00781,2.54296 -1.60156,1.69532 -2.39844,3.66407 -2.39844,5.90625 0,2.38282 0.78906,4.42969 2.375,6.14063 1.57813,1.71094 3.63672,2.5625 6.17578,2.5625 2.66016,0 4.75,-0.85156 6.26563,-2.5625 1.51953,-1.71094 2.28125,-3.82813 2.28125,-6.35938 0,-2.35156 -0.80078,-4.3125 -2.39453,-5.8789 -1.59766,-1.56641 -3.69532,-2.35156 -6.29688,-2.35156 m 10.66016,-1.37891 v 18.96484 c 0,1.26172 -0.0312,2.27344 -0.0937,3.03516 -0.0625,0.76172 -0.25391,1.64453 -0.58594,2.65234 -0.32813,1.00391 -0.82031,1.92578 -1.48047,2.75782 -2.03516,2.55859 -4.91406,3.83593 -8.64062,3.83593 -2.94141,0 -5.42579,-0.76172 -7.44532,-2.28515 -2.01562,-1.52344 -3.10547,-3.60547 -3.26172,-6.25 h 2.11329 c 0.125,2.01172 0.99218,3.63672 2.60546,4.87109 1.61329,1.23438 3.54688,1.85156 5.80079,1.85156 3.13281,0 5.44921,-0.98828 6.95312,-2.97265 1.28125,-1.72266 1.92188,-4.23828 1.92188,-7.53907 v -2.45703 h -0.0937 c -0.96875,1.17578 -2.21485,2.11719 -3.73047,2.82032 -1.51953,0.70312 -3.09375,1.05859 -4.72266,1.05859 -3.06641,0 -5.58984,-1.01953 -7.55859,-3.0625 -1.97266,-2.03906 -2.96094,-4.49609 -2.96094,-7.36719 0,-2.90234 1.01953,-5.35156 3.05469,-7.34765 2.03515,-2 4.61718,-2.9961 7.74609,-2.9961 3.35156,0 6.07422,1.29297 8.17188,3.87891 h 0.0937 v -3.44922 z m 0,0"
       style="fill:#000000;fill-opacity:1;fill-rule:nonzero;stroke:none"
       inkscape:connector-curvature="0" />
    <path
       id="path38"
       d="m 668.31641,279.85547 c 0,0.96484 -0.78125,1.74609 -1.7461,1.74609 -0.96094,0 -1.74219,-0.78125 -1.74219,-1.74609 0,-0.96094 0.78125,-1.74219 1.74219,-1.74219 0.96485,0 1.7461,0.78125 1.7461,1.74219"
       style="fill:#000000;fill-opacity:1;fill-rule:nonzero;stroke:none"
       inkscape:connector-curvature="0" />
    <path
       id="path40"
       d="m 242.42969,224.30859 c 4.20703,-4.17968 6.33984,-9.26953 6.33984,-15.13281 0,-5.86328 -2.13281,-10.95703 -6.33984,-15.13281 -4.21094,-4.17578 -9.33985,-6.29297 -15.25,-6.29297 -5.91016,0 -11.03907,2.11719 -15.25,6.29297 -4.20703,4.17578 -6.34375,9.26953 -6.34375,15.13281 0,5.86328 2.13672,10.95313 6.34375,15.13281 4.21093,4.17578 9.33984,6.29297 15.25,6.29297 5.91015,0 11.03906,-2.11719 15.25,-6.29297 m -15.25,16.63282 c -4.45703,0 -8.75782,-0.78907 -12.77735,-2.33594 -4.02343,-1.55469 -7.6289,-3.82031 -10.71484,-6.73047 -6.44531,-6.05469 -9.71094,-13.69141 -9.71094,-22.69922 0,-9.00781 3.26563,-16.66406 9.71094,-22.75781 3.08984,-2.875 6.69531,-5.1211 10.71484,-6.67188 4.01953,-1.55078 8.32032,-2.33593 12.77735,-2.33593 4.45703,0 8.7539,0.78515 12.77343,2.33593 4.02344,1.55469 7.625,3.79688 10.71485,6.67188 6.44922,6.09375 9.71484,13.75 9.71484,22.75781 v 30.38672 c 0,0.13672 -0.10937,0.24609 -0.24609,0.24609 h -11.1211 c -0.13671,0 -0.24609,-0.10937 -0.24609,-0.24609 v -5.99609 c -2.63672,2.10156 -5.59375,3.79296 -8.81641,5.03906 -4.01953,1.54687 -8.3164,2.33594 -12.77343,2.33594"
       style="fill:#000000;fill-opacity:1;fill-rule:nonzero;stroke:none"
       inkscape:connector-curvature="0" />
    <path
       id="path42"
       d="m 598.49609,224.30859 c 4.20703,-4.17968 6.34375,-9.26953 6.34375,-15.13281 0,-5.86328 -2.13672,-10.95703 -6.34375,-15.13281 -4.20703,-4.17578 -9.33593,-6.29297 -15.25,-6.29297 -5.90625,0 -11.03906,2.11719 -15.25,6.29297 -4.20703,4.17578 -6.33984,9.26953 -6.33984,15.13281 0,5.86328 2.13281,10.95313 6.33984,15.13281 4.21094,4.17578 9.34375,6.29297 15.25,6.29297 5.91407,0 11.04297,-2.11719 15.25,-6.29297 m -15.25,16.63282 c -4.45703,0 -8.7539,-0.78907 -12.77343,-2.33594 -4.02344,-1.55469 -7.62891,-3.82031 -10.71485,-6.73047 -6.44531,-6.05469 -9.71484,-13.69141 -9.71484,-22.69922 0,-9.00781 3.26953,-16.66406 9.71484,-22.75781 3.08985,-2.875 6.69141,-5.1211 10.71485,-6.67188 4.01953,-1.55078 8.3164,-2.33593 12.77343,-2.33593 4.45703,0 8.75782,0.78515 12.77735,2.33593 4.01953,1.55469 7.625,3.79688 10.71093,6.67188 6.44922,6.09375 9.71875,13.75 9.71875,22.75781 v 30.38672 c 0,0.13672 -0.11328,0.24609 -0.25,0.24609 h -11.11718 c -0.13672,0 -0.2461,-0.10937 -0.2461,-0.24609 v -5.99609 c -2.63672,2.10156 -5.59375,3.79296 -8.8164,5.03906 -4.01953,1.54687 -8.32032,2.33594 -12.77735,2.33594"
       style="fill:#000000;fill-opacity:1;fill-rule:nonzero;stroke:none"
       inkscape:connector-curvature="0" />
    <path
       id="path44"
       d="m 489.97656,209.17578 c 0,5.79297 2.10938,10.82813 6.26953,14.95703 4.16407,4.12891 9.23438,6.22266 15.07422,6.22266 5.84375,0 10.91406,-2.09375 15.07813,-6.22266 4.16015,-4.1289 6.26953,-9.16406 6.26953,-14.95703 0,-5.79687 -2.10938,-10.82812 -6.26953,-14.95703 -4.16407,-4.12891 -9.23438,-6.22266 -15.07813,-6.22266 -5.83984,0 -10.91015,2.09375 -15.07422,6.22266 -4.16015,4.12891 -6.26953,9.16016 -6.26953,14.95703 m 0,72.00391 c 0,0.27343 -0.22265,0.49218 -0.49219,0.49218 h -11.12109 c -0.26953,0 -0.49219,-0.21875 -0.49219,-0.49218 v -72.00391 c 0,-4.34766 0.84766,-8.54297 2.51953,-12.47266 1.67188,-3.92968 4.1211,-7.41406 7.27344,-10.35546 3.11328,-2.9336 6.74219,-5.22266 10.79297,-6.80079 4.04688,-1.58203 8.375,-2.38281 12.86328,-2.38281 4.48828,0 8.81641,0.79297 12.86719,2.35156 4.05078,1.56641 7.67969,3.82813 10.78906,6.72266 6.5,6.14453 9.79688,13.85938 9.79688,22.9375 0,9.07813 -3.29688,16.77734 -9.79297,22.87891 -3.10547,2.93359 -6.74219,5.21484 -10.79297,6.78125 -4.05078,1.55859 -8.37891,2.35156 -12.86719,2.35156 -4.48437,0 -8.8125,-0.79297 -12.86328,-2.35156 -3.08594,-1.19532 -5.92578,-2.80078 -8.48047,-4.79297 z m 0,0"
       style="fill:#000000;fill-opacity:1;fill-rule:nonzero;stroke:none"
       inkscape:connector-curvature="0" />
    <path
       id="path200"
       d="m 109.80078,281.19141 c 0,0.14062 0.11328,0.25 0.25,0.25 h 82.00391 c 0.13672,0 0.25,-0.10938 0.25,-0.25 v -19.91016 c 0,-0.13672 -0.11328,-0.25 -0.25,-0.25 h -82.00391 c -0.13672,0 -0.25,0.11328 -0.25,0.25 z m 0,0"
       style="fill:#d91e26;fill-opacity:1;fill-rule:nonzero;stroke:none"
       inkscape:connector-curvature="0" />
    <path
       id="path202"
       d="m 369.73437,261.03125 h -82.0039 c -0.13672,0 -0.25,0.11328 -0.25,0.25 v 19.91016 c 0,0.14062 0.11328,0.25 0.25,0.25 h 82.0039 c 0.13672,0 0.25,-0.10938 0.25,-0.25 v -19.91016 c 0,-0.13672 -0.11328,-0.25 -0.25,-0.25"
       style="fill:#fdb811;fill-opacity:1;fill-rule:nonzero;stroke:none"
       inkscape:connector-curvature="0" />
    <path
       id="path204"
       d="m 458.57031,261.03125 h -82.0039 c -0.13672,0 -0.25,0.11328 -0.25,0.25 v 19.91016 c 0,0.14062 0.11328,0.25 0.25,0.25 h 82.0039 c 0.13672,0 0.25,-0.10938 0.25,-0.25 v -19.91016 c 0,-0.13672 -0.11328,-0.25 -0.25,-0.25"
       style="fill:#70bd42;fill-opacity:1;fill-rule:nonzero;stroke:none"
       inkscape:connector-curvature="0" />
    <path
       id="path206"
       d="m 280.89844,261.03125 h -82.00391 c -0.13672,0 -0.25,0.11328 -0.25,0.25 v 19.91016 c 0,0.14062 0.11328,0.25 0.25,0.25 h 82.00391 c 0.13672,0 0.25,-0.10938 0.25,-0.25 v -19.91016 c 0,-0.13672 -0.11328,-0.25 -0.25,-0.25"
       style="fill:#4f9ed7;fill-opacity:1;fill-rule:nonzero;stroke:none"
       inkscape:connector-curvature="0" />
  </g>
</svg>
